<svg width="193" height="100" viewBox="0 0 193 100" fill="none" xmlns="http://www.w3.org/2000/svg">
<g clip-path="url(#clip0_1_3)">
<circle opacity="0.83" cx="117" cy="79" r="52" fill="url(#paint0_linear_1_3)"/>
<ellipse opacity="0.96" cx="58.5" cy="83.5" rx="39.5" ry="37.5" fill="url(#paint1_linear_1_3)"/>
<circle opacity="0.81" cx="19.5" cy="93.5" r="32.5" fill="url(#paint2_linear_1_3)"/>
<circle cx="178.5" cy="91.5" r="34.5" fill="url(#paint3_linear_1_3)"/>
<path d="M12 39.5L43 18.5L47 24L10.5 47.5L15 40L12 39.5Z" fill="url(#paint4_linear_1_3)"/>
<path d="M50.1975 13.4697C51.0075 12.9383 52.0242 13.7539 51.6813 14.6598L50.6514 17.3805C50.4981 17.7857 50.623 18.2436 50.961 18.5146L53.2303 20.3348C53.9859 20.941 53.5245 22.16 52.5569 22.1138L49.6511 21.975C49.2184 21.9544 48.8215 22.2147 48.6682 22.6199L47.6383 25.3406C47.2954 26.2466 45.9934 26.1844 45.7384 25.2499L44.9724 22.4434C44.8583 22.0255 44.4881 21.7286 44.0553 21.7079L41.1496 21.5692C40.1819 21.523 39.8387 20.2656 40.6487 19.7342L43.0811 18.1384C43.4433 17.9008 43.6113 17.4569 43.4972 17.039L42.7312 14.2326C42.4762 13.298 43.566 12.5831 44.3216 13.1892L46.5909 15.0094C46.9289 15.2805 47.4029 15.3031 47.7652 15.0654L50.1975 13.4697Z" fill="#D9D9D9"/>
</g>
<defs>
<linearGradient id="paint0_linear_1_3" x1="117" y1="27" x2="117" y2="131" gradientUnits="userSpaceOnUse">
<stop stop-color="#D9D9D9"/>
<stop offset="1" stop-color="#737373"/>
</linearGradient>
<linearGradient id="paint1_linear_1_3" x1="58.5" y1="46" x2="58.5" y2="121" gradientUnits="userSpaceOnUse">
<stop stop-color="#D9D9D9"/>
<stop offset="1" stop-color="#737373"/>
</linearGradient>
<linearGradient id="paint2_linear_1_3" x1="19.5" y1="61" x2="19.5" y2="126" gradientUnits="userSpaceOnUse">
<stop stop-color="#D9D9D9"/>
<stop offset="1" stop-color="#737373"/>
</linearGradient>
<linearGradient id="paint3_linear_1_3" x1="178.5" y1="57" x2="178.5" y2="126" gradientUnits="userSpaceOnUse">
<stop stop-color="#D9D9D9"/>
<stop offset="1" stop-color="#737373"/>
</linearGradient>
<linearGradient id="paint4_linear_1_3" x1="73.5" y1="18" x2="28.75" y2="47.5" gradientUnits="userSpaceOnUse">
<stop stop-color="#D9D9D9"/>
<stop offset="1" stop-color="#737373" stop-opacity="0"/>
</linearGradient>
<clipPath id="clip0_1_3">
<rect width="193" height="100" fill="white"/>
</clipPath>
</defs>
</svg>
